{"title":"The Search For Santa Paws 2010.720p.BRRip.H264.Feel-Free","uid":5946787,"size":1424839948,"categoryP":"video","categoryS":"hd___movies","magnet":"?xt=urn:btih:1f2ee7fe60151024e6978075160f54789c71f47a&amp;dn=The+Search+For+Santa+Paws+2010.720p.BRRip.H264.Feel-Free&amp;tr=udp%3A%2F%2Ftracker.openbittorrent.com%3A80&amp;tr=udp%3A%2F%2Fopen.demonii.com%3A1337&amp;tr=udp%3A%2F%2Ftracker.coppersurfer.tk%3A6969&amp;tr=udp%3A%2F%2Fexodus.desync.com%3A6969","seeders":0,"leechers":1,"uploader":"neon","files":9,"time":1289394455,"description":"Genre:Adventure | Family\nLanguage:English\nIMDb:http://www.imdb.com/title/tt1544572/\nSource:720p.BluRay.x264-aAF\n\n\nGeneral\nComplete name :The.Search.For.Santa.Paws.2010.720p.BRRip.H264.Feel-Free\nFormat : MPEG-4\nFormat profile : Base Media\nCodec ID : mp42\nFile size : 1.32 GiB\nDuration : 1h 36mn\nOverall bit rate : 1 960 Kbps\nVideo #1\nCodec ID : avc1\nCodec ID/Info : Advanced Video Coding\nDuration : 1h 36mn\nBit rate mode : Variable\nBit rate : 1 479 Kbps\nWidth : 1 280 pixels\nHeight : 720 pixels\nDisplay aspect ratio : 16:9\nFrame rate mode : Constant\nFrame rate : 23.976 fps\nResolution : 24 bits\nColorimetry : 4:2:0\nScan type : Progressive\nBits/(Pixel*Frame) : 0.067\nStream size : 1 020 MiB (75%)\nAudio #2\nID : 2\nFormat : AAC\nFormat/Info : Advanced Audio Codec\nFormat version : Version 4\nFormat profile : LC\nFormat settings, SBR : No\nCodec ID : 40\nDuration : 1h 36mn\nBit rate mode : Constant\nBit rate : 477 Kbps\nNominal bit rate : 480 Kbps\nChannel(s) : 6 channels\nChannel positions : Front: L C R, Rear: L R, LFE\nSampling rate : 48.0 KHz\nResolution : 16 bits\nStream size : 329 MiB (24%)\n\n","torrent":{"xt":"urn:btih:1f2ee7fe60151024e6978075160f54789c71f47a","amp;dn":"The+Search+For+Santa+Paws+2010.720p.BRRip.H264.Feel-Free","amp;tr":["udp%3A%2F%2Ftracker.openbittorrent.com%3A80","udp%3A%2F%2Fopen.demonii.com%3A1337","udp%3A%2F%2Ftracker.coppersurfer.tk%3A6969","udp%3A%2F%2Fexodus.desync.com%3A6969"],"infoHash":"1f2ee7fe60151024e6978075160f54789c71f47a","infoHashBuffer":{"type":"Buffer","data":[31,46,231,254,96,21,16,36,230,151,128,117,22,15,84,120,156,113,244,122]},"announce":[],"urlList":[]}}